<svg t="1788993568484" class="icon" viewBox="0 0 1024 1024" version="1.1" xmlns="http://www.w3.org/2000/svg" p-id="986" width="512" height="512"><path d="M177.883382 63.109973C145.957157 70.029472 117.920784 94.182321 105.053756 125.621479 95.342877 149.531877 96.434978 181.940837 107.602706 205.243994 118.525881 227.821944 139.767134 247.243744 161.615565 254.403548 165.986114 255.862543 169.627186 257.197095 169.869637 257.317247 170.112045 257.439545 167.200534 263.507249 163.679657 270.791497 142.923305 312.424353 131.028182 350.778761 125.687831 394.113105 122.653979 417.660815 123.018728 460.265619 126.295052 484.905473 136.61313 563.438076 165.378936 636.630284 216.602539 714.555602 239.056046 748.906356 264.425397 779.613913 298.168951 813.359612 350.727106 866.03792 403.040707 904.029725 476.595476 942.87118 506.333231 958.649783 517.380828 963.505233 521.386628 962.413132 527.334179 960.956283 527.81908 959.134684 528.54862 936.438727 530.490328 880.117223 549.667532 836.055569 589.601088 796.486762 613.878338 772.33181 641.431891 755.581258 673.838748 745.265304 728.096203 727.907553 759.533258 711.399409 797.525063 680.327146 851.175319 636.508051 886.618173 581.280685 903.246427 515.85754 910.893278 485.755123 912.350127 473.130524 912.229975 436.353182 912.229975 409.164378 911.865226 401.517463 909.558726 386.951113 903.246427 346.775106 890.744125 308.783302 871.68922 271.761299L863.435169 255.862543 870.837424 252.219347C893.050625 241.296193 911.137874 220.90459 919.512077 197.234518 939.05403 142.977084 909.558726 83.744069 855.301271 68.328069 841.09967 64.32435 815.610166 64.32435 802.502811 68.450324 776.161512 76.582077 753.828158 94.911776 742.782706 117.367428 740.598505 121.858129 738.414303 125.499223 737.927256 125.499223 737.442355 125.621479 732.344454 122.585481 726.519201 118.94443 703.698801 104.622676 661.578898 85.808075 634.390094 77.796475 590.573036 64.931571 556.949678 60.561022 507.549732 61.653123 459.239871 62.625071 423.674718 69.420127 378.278513 86.29302 359.950959 93.090178 326.329703 109.720577 309.699304 120.158808 302.661798 124.64953 296.589803 128.290581 295.984749 128.41288 295.497702 128.533032 293.555951 125.134432 291.736499 120.766028 286.75875 109.355828 280.568749 100.129851 271.222598 90.541227 257.383599 76.582077 240.150292 67.235925 220.85079 63.232271 209.560742 60.925771 188.199336 60.803473 177.881237 63.109973ZM549.909983 250.155298C598.58455 259.988496 641.431891 290.818351 666.191897 333.787904 676.387699 351.38596 684.521597 376.877609 687.312998 399.088665 689.132493 414.019828 688.042495 444.607168 685.371247 456.987171 673.718596 509.42511 642.888741 550.693281 596.15807 576.182785 576.493669 586.863488 552.338781 593.540622 525.877329 595.482287 515.439077 596.211784 477.567382 596.574388 433.507981 596.331937 364.806409 595.967124 358.494109 595.84489 354.975356 593.782987 346.963757 589.534693 347.328505 593.660688 347.328505 496.193375 347.328505 442.78557 347.813407 403.823963 348.540759 397.754114 353.518507 358.305459 371.481312 323.105055 400.978761 294.944303 428.894874 268.242546 463.365823 252.097048 500.752574 248.213547 513.73982 246.878995 538.37963 247.848798 549.909983 250.155298Z" fill="#2c2c2c" p-id="987"></path></svg>
