<!--
    PhotoApps 应用图标源文件：五色风车（红/橙/绿/紫/蓝）。
    修改本文件后需重新运行 tools/gen-icon.ps1 重新生成 app.ico。
-->
<svg viewBox="0 0 1024 1024" version="1.1" xmlns="http://www.w3.org/2000/svg">
    <path d="M664.064 416.64L375.04 127.616c42.752-15.232 88.832-23.68 136.704-23.68 53.888 0 105.216 10.496 152.32 29.568v283.136z" fill="#E73736" />
    <path d="M714.88 662.272V158.336c121.344 70.272 203.008 201.472 203.008 351.744 0 53.888-10.496 105.216-29.568 152.32H714.88z" fill="#EE7D19" />
    <path d="M359.552 712.96h503.936c-70.272 121.344-201.472 203.008-351.744 203.008-53.888 0-105.216-10.496-152.32-29.568V712.96z" fill="#369639" />
    <path d="M443.776 281.6L117.632 607.744c-7.68-31.36-11.904-64-11.904-97.792 0-153.344 84.992-286.848 210.56-355.968l127.488 127.616z" fill="#8E5FA0" />
    <path d="M308.736 501.888v359.808c-75.008-43.392-134.912-110.08-169.6-190.208l169.6-169.6z" fill="#2C5A9E" />
</svg>
